<svg width="349" height="148" viewBox="0 0 349 148" fill="none" xmlns="http://www.w3.org/2000/svg">
<path fill-rule="evenodd" clip-rule="evenodd" d="M101.352 0.157302C102.024 -0.130682 102.216 -0.0348433 102.696 0.541091C103.08 0.925092 103.08 1.02173 102.888 1.59773C102.887 1.98268 101.351 4.38302 97.5118 9.85359C94.5358 14.0775 91.4636 18.5897 90.5997 19.9337C84.5518 29.5335 79.1759 39.2294 75.0479 48.1573C72.9359 52.5733 68.9998 61.9819 69.0958 62.1739C69.1935 62.2695 73.1279 61.5009 73.7999 61.213C74.3289 61.0366 75.1008 61.0234 75.4463 61.171C75.5563 61.4673 75.5641 61.843 75.4317 62.1739C75.2396 62.6536 74.8554 62.9412 74.1836 63.0372C73.4151 63.1335 68.0528 64.57 67.9444 64.669C67.5604 64.957 64.7765 72.5418 62.8565 78.3018C60.6486 84.8295 59.7842 87.9014 57.8643 95.005C56.0403 101.533 54.9838 104.221 53.9278 105.373C53.1599 106.237 51.8162 106.43 50.9522 105.758C49.1282 104.318 49.5125 99.8056 51.8165 91.9337C53.7364 85.4058 56.9998 76.5736 60.2637 68.8936C60.9357 67.2616 61.4161 65.9171 61.4161 65.9171C61.413 65.9171 61.0308 65.9182 60.6485 66.0137C56.1366 66.7817 47.1124 67.8377 41.7364 68.2218L40.0079 68.4132L37.4161 71.3897C34.92 74.2698 29.1597 80.9897 19.4639 92.3175C11.112 102.205 6.11965 107.677 4.39166 109.117C3.43168 109.885 2.18363 109.981 1.22369 109.213C-0.407779 108.061 -0.408013 105.565 1.22369 104.413C1.51167 104.221 2.08801 103.934 2.37603 103.934C3.43203 103.838 6.12052 101.725 7.27252 99.9971C10.8243 94.9093 12.6485 90.0133 13.6085 83.4854C13.9924 80.5095 14.0882 80.0292 13.9922 78.4932C13.8002 74.8455 12.9361 72.4457 11.1124 70.4298C9.96036 69.1818 8.90375 68.4135 6.88775 67.3575C4.68037 66.2058 4.19995 65.8215 4.39166 65.0538C4.48761 64.8619 4.68005 64.5739 4.96783 64.3819C5.35183 64.0939 5.83252 64.189 7.27252 64.669C8.80848 65.341 10.7284 65.6292 15.9122 66.2052C21.0961 66.8771 22.0562 66.9737 27.9122 66.9737C30.6962 66.9737 37.9919 66.5892 38.0879 66.4932C38.1842 66.3969 39.9126 64.3813 42.0245 61.9815C52.0085 50.6535 65.352 35.8691 71.8799 28.9571C85.511 14.4621 99.4302 0.830977 101.352 0.157302ZM12.2637 68.2218C14.4717 70.7178 15.5282 73.5016 15.9122 77.4376C16.2961 81.6615 15.5278 87.3253 13.7999 92.4132C13.5147 93.2685 13.3242 93.936 13.3204 93.9493C13.3447 93.921 15.7358 91.1485 18.792 87.8057C22.9198 83.198 34.9184 69.6628 35.9756 68.3175H36.0723C36.0723 68.2215 36.0719 68.1251 35.8799 68.1251C34.9196 68.2211 28.3926 68.4131 25.6085 68.4132C22.7285 68.4132 21.4801 68.317 16.8721 67.837L11.4004 67.3575L12.2637 68.2218ZM91.3682 12.4454C90.7922 12.8294 79.5596 24.3491 75.1436 28.9571C66.4077 38.173 54.1203 51.6131 43.9444 63.421C41.8324 65.821 41.9282 65.7257 42.1202 65.7257C42.2169 65.7256 43.6565 65.5336 45.3838 65.4376C50.3758 64.9576 62.1844 63.2292 62.5684 63.0372C62.5697 62.9388 63.337 61.4036 64.2002 59.5811L64.296 59.3897C67.464 52.5737 71.7843 43.9331 75.2403 37.7891C79.8482 29.8213 83.592 23.773 88.296 16.9571C90.1193 14.366 91.4633 12.3507 91.3682 12.4454Z" fill="#0a0a0c"/>
<path d="M75.5284 61.213C75.5049 61.1973 75.477 61.1841 75.4463 61.171C75.4224 61.1064 75.3941 61.046 75.3604 60.9903L75.5284 61.213Z" fill="#0a0a0c"/>
<path d="M349 107.072V107.197H339.448L296.985 60.8849V103.354C296.985 104.374 297.393 105.249 298.21 105.979C299.051 106.708 300.061 107.072 301.238 107.072V107.197H291.686V107.072C292.863 107.072 293.873 106.708 294.714 105.979C295.555 105.249 295.976 104.374 295.976 103.354V60.0411C295.976 59.937 295.964 59.8432 295.939 59.7599C295.699 58.1141 294.702 57.0203 292.948 56.4786C292.539 56.3745 292.119 56.3224 291.686 56.3224V56.1974H301.238L343.701 102.51V60.0099C343.701 58.9891 343.281 58.1245 342.44 57.4161C341.622 56.687 340.625 56.3224 339.448 56.3224H339.412V56.1974H349V56.3224C347.822 56.3224 346.813 56.687 345.972 57.4161C345.131 58.1245 344.71 58.9891 344.71 60.0099V103.354C344.71 103.437 344.722 103.52 344.747 103.604C344.987 105.249 345.984 106.343 347.738 106.885C348.147 107.01 348.567 107.072 349 107.072Z" fill="#0a0a0c"/>
<path d="M277.475 69.1974C277.475 69.1974 277.139 68.5828 276.466 67.3536C275.793 66.1245 274.784 64.7182 273.438 63.1349C272.092 61.5516 270.398 60.1661 268.355 58.9786C266.337 57.7703 263.97 57.1349 261.254 57.0724H238.364C238.364 57.2807 238.364 58.6245 238.364 61.1036C238.364 63.5828 238.364 66.3641 238.364 69.4474C238.364 72.5307 238.364 75.2599 238.364 77.6349C238.388 80.0099 238.4 81.1974 238.4 81.1974H250.656C252.531 81.1974 254.117 80.9474 255.414 80.4474C256.736 79.9474 257.806 79.3328 258.623 78.6036C259.464 77.8745 260.113 77.1453 260.569 76.4161C261.026 75.687 261.338 75.0724 261.506 74.5724C261.699 74.0516 261.795 73.7911 261.795 73.7911H261.939L260.569 89.4786H260.425C260.425 89.4786 260.377 89.2286 260.281 88.7286C260.209 88.2286 260.004 87.6141 259.668 86.8849C259.356 86.1557 258.851 85.4266 258.154 84.6974C257.457 83.9682 256.496 83.3536 255.27 82.8536C254.069 82.3328 252.531 82.0724 250.656 82.0724H238.4C238.4 82.0724 238.388 83.2703 238.364 85.6661C238.364 88.0411 238.364 90.7807 238.364 93.8849C238.364 96.9682 238.364 99.7599 238.364 102.26C238.364 104.739 238.364 106.093 238.364 106.322H261.254C263.97 106.239 266.337 105.604 268.355 104.416C270.398 103.208 272.092 101.812 273.438 100.229C274.784 98.6453 275.793 97.2495 276.466 96.0411C277.139 94.812 277.475 94.1974 277.475 94.1974H277.727L275.132 107.197H227.37V107.072C228.548 107.072 229.557 106.708 230.398 105.979C231.239 105.249 231.66 104.364 231.66 103.322V60.0411C231.66 59.0203 231.239 58.1453 230.398 57.4161C229.557 56.687 228.548 56.3224 227.37 56.3224V56.1974H275.132L277.727 69.1974H277.475Z" fill="#0a0a0c"/>
<path d="M197.01 106.291C199.726 106.229 202.093 105.604 204.112 104.416C206.13 103.208 207.812 101.812 209.158 100.229C210.528 98.6453 211.549 97.2391 212.222 96.0099C212.895 94.7807 213.231 94.1661 213.231 94.1661H213.448L210.852 107.197H199.606C199.606 107.197 199.594 107.187 199.57 107.166L163.127 107.197V107.072C164.304 107.072 165.313 106.708 166.155 105.979C166.996 105.249 167.416 104.364 167.416 103.322V60.0411C167.416 59.0203 166.996 58.1453 166.155 57.4161C165.313 56.687 164.304 56.3224 163.127 56.3224V56.1974H178.446V56.3224C177.245 56.3224 176.224 56.687 175.382 57.4161C174.541 58.1453 174.121 59.0203 174.121 60.0411C174.121 60.0411 174.121 62.3536 174.121 66.9786C174.121 71.5828 174.121 76.8641 174.121 82.8224C174.121 88.7807 174.121 94.1349 174.121 98.8849C174.121 103.614 174.121 106.083 174.121 106.291H197.01Z" fill="#0a0a0c"/>
<path d="M132.767 106.291C135.482 106.229 137.849 105.604 139.868 104.416C141.887 103.208 143.569 101.812 144.914 100.229C146.284 98.6453 147.306 97.2391 147.978 96.0099C148.651 94.7807 148.988 94.1661 148.988 94.1661H149.204L146.609 107.197H135.362C135.362 107.197 135.35 107.187 135.326 107.166L98.883 107.197V107.072C100.061 107.072 101.07 106.708 101.911 105.979C102.752 105.249 103.173 104.364 103.173 103.322V60.0411C103.173 59.0203 102.752 58.1453 101.911 57.4161C101.07 56.687 100.061 56.3224 98.883 56.3224V56.1974H114.203V56.3224C113.001 56.3224 111.98 56.687 111.139 57.4161C110.298 58.1453 109.877 59.0203 109.877 60.0411C109.877 60.0411 109.877 62.3536 109.877 66.9786C109.877 71.5828 109.877 76.8641 109.877 82.8224C109.877 88.7807 109.877 94.1349 109.877 98.8849C109.877 103.614 109.877 106.083 109.877 106.291H132.767Z" fill="#0a0a0c"/>
<path d="M2.89553 147.197V122.403H19.104V124.136H5.01303V133.953H17.7565V135.647H5.01303V145.503H19.104V147.197H2.89553Z" fill="#0a0a0c"/>
<path d="M64.6501 147.582C61.6728 147.582 59.273 147.223 57.4506 146.504V144.618C59.581 145.388 61.9295 145.773 64.4961 145.773C66.9088 145.773 68.7311 145.401 69.9631 144.656C71.1951 143.912 71.8111 142.654 71.8111 140.883C71.8111 139.805 71.5673 138.933 71.0796 138.265C70.592 137.598 69.8091 137.046 68.7311 136.61C67.6788 136.148 66.2543 135.724 64.4576 135.339C62.5583 134.903 61.044 134.403 59.9146 133.838C58.811 133.248 58.0153 132.529 57.5276 131.682C57.0656 130.835 56.8346 129.834 56.8346 128.679C56.8346 126.677 57.5533 125.073 58.9906 123.866C60.4536 122.634 62.6995 122.018 65.7281 122.018C67.1141 122.018 68.4103 122.121 69.6166 122.326C70.823 122.532 71.747 122.737 72.3886 122.942V124.829C70.5406 124.187 68.4616 123.866 66.1516 123.866C63.816 123.866 62.0193 124.251 60.7616 125.021C59.5296 125.766 58.9136 126.985 58.9136 128.679C58.9136 129.629 59.119 130.411 59.5296 131.027C59.966 131.618 60.6975 132.118 61.7241 132.529C62.7508 132.94 64.1625 133.363 65.9591 133.799C67.9868 134.261 69.5653 134.826 70.6946 135.493C71.8496 136.135 72.671 136.905 73.1586 137.803C73.6463 138.676 73.8901 139.703 73.8901 140.883C73.8901 143.091 73.1073 144.759 71.5416 145.888C69.976 147.018 67.6788 147.582 64.6501 147.582Z" fill="#0a0a0c"/>
<path d="M118.606 147.197V124.136H110.059V122.403H129.271V124.136H120.724V147.197H118.606Z" fill="#0a0a0c"/>
<path d="M163.358 147.197L172.752 122.403H175.447L184.802 147.197H182.646L179.913 139.959H168.286L165.552 147.197H163.358ZM168.748 138.227H179.412L174.061 124.097L168.748 138.227Z" fill="#0a0a0c"/>
<path d="M227.423 147.197V124.136H218.876V122.403H238.088V124.136H229.541V147.197H227.423Z" fill="#0a0a0c"/>
<path d="M276.215 147.197V122.403H292.424V124.136H278.333V133.953H291.076V135.647H278.333V145.503H292.424V147.197H276.215Z" fill="#0a0a0c"/>
<path d="M337.97 147.582C334.993 147.582 332.593 147.223 330.771 146.504V144.618C332.901 145.388 335.249 145.773 337.816 145.773C340.229 145.773 342.051 145.401 343.283 144.656C344.515 143.912 345.131 142.654 345.131 140.883C345.131 139.805 344.887 138.933 344.4 138.265C343.912 137.598 343.129 137.046 342.051 136.61C340.999 136.148 339.574 135.724 337.778 135.339C335.878 134.903 334.364 134.403 333.235 133.838C332.131 133.248 331.335 132.529 330.848 131.682C330.386 130.835 330.155 129.834 330.155 128.679C330.155 126.677 330.873 125.073 332.311 123.866C333.774 122.634 336.019 122.018 339.048 122.018C340.434 122.018 341.73 122.121 342.937 122.326C344.143 122.532 345.067 122.737 345.709 122.942V124.829C343.861 124.187 341.782 123.866 339.472 123.866C337.136 123.866 335.339 124.251 334.082 125.021C332.85 125.766 332.234 126.985 332.234 128.679C332.234 129.629 332.439 130.411 332.85 131.027C333.286 131.618 334.017 132.118 335.044 132.529C336.071 132.94 337.482 133.363 339.279 133.799C341.307 134.261 342.885 134.826 344.015 135.493C345.17 136.135 345.991 136.905 346.479 137.803C346.966 138.676 347.21 139.703 347.21 140.883C347.21 143.091 346.427 144.759 344.862 145.888C343.296 147.018 340.999 147.582 337.97 147.582Z" fill="#0a0a0c"/>
</svg>
