<svg xmlns="http://www.w3.org/2000/svg" viewBox="0 0 467.65 118.51"><path d="M58.38,6.05c28.85,0,52.33,23.87,52.33,53.2s-23.48,53.2-52.33,53.2S6.05,88.59,6.05,59.25,29.53,6.05,58.38,6.05m0-6C26.14,0,0,26.53,0,59.25s26.14,59.26,58.38,59.26S116.76,92,116.76,59.25,90.62,0,58.38,0Z" style="fill:#1f80ad"></path><rect x="90.59" y="25.62" width="4.29" height="69.18" transform="translate(154.34 152.03) rotate(-156.85)" style="fill:#fff"></rect><rect x="97.3" y="42.97" width="4.29" height="69.18" transform="translate(160.39 187.96) rotate(-156.85)" style="fill:#fff"></rect><rect x="16.48" y="42.97" width="4.29" height="69.18" transform="translate(-28.99 13.56) rotate(-23.15)" style="fill:#fff"></rect><polygon points="70.06 76.88 73.99 79.49 98.69 21.99 94.32 20.12 70.06 76.88" style="fill:#fff"></polygon><rect x="21.32" y="27.4" width="4.29" height="69.2" transform="translate(-22.48 14.21) rotate(-23.15)" style="fill:#fff"></rect><polygon points="46.03 77.4 42.1 80.02 17.17 21.99 21.54 20.12 46.03 77.4" style="fill:#fff"></polygon><polygon points="26.66 107.18 32.58 108.38 57.88 51.59 57.88 51.59 26.66 107.18" style="fill:#fff"></polygon><polygon points="89.78 107.18 83.86 108.38 58.55 51.59 58.55 51.59 89.78 107.18" style="fill:#fff"></polygon><path d="M58.38,6.05c28.85,0,52.33,23.87,52.33,53.2s-23.48,53.2-52.33,53.2S6.05,88.59,6.05,59.25,29.53,6.05,58.38,6.05m0-6C26.14,0,0,26.53,0,59.25s26.14,59.26,58.38,59.26S116.76,92,116.76,59.25,90.62,0,58.38,0Z" style="fill:#fff"></path><g style="opacity:0.6900000000000001"><path d="M171.42,79.94h-4.68V78.27h11.34v1.67h-4.69V93.76h-2Z" style="fill:#fff"></path><path d="M191.35,78.27h8.93v1.67h-6.95v4.85h5.86v1.67h-5.86v5.63h7.19v1.67h-9.17Z" style="fill:#fff"></path><path d="M213.4,86c0-5,2.94-8,6.87-8a5.75,5.75,0,0,1,4.26,1.91l-1.08,1.28a4.2,4.2,0,0,0-3.14-1.46c-2.93,0-4.88,2.4-4.88,6.26s1.86,6.33,4.8,6.33a4.63,4.63,0,0,0,3.59-1.74l1.08,1.24a6,6,0,0,1-4.75,2.24C216.29,94.05,213.4,91.06,213.4,86Z" style="fill:#fff"></path><path d="M238.28,78.27h2v6.49h7.21V78.27h2V93.76h-2V86.48h-7.21v7.28h-2Z" style="fill:#fff"></path><path d="M279.4,78.27h3.88c4.76,0,7.31,2.77,7.31,7.69s-2.55,7.8-7.23,7.8h-4Zm3.73,13.88c3.62,0,5.43-2.27,5.43-6.19s-1.81-6.07-5.43-6.07h-1.76V92.15Z" style="fill:#fff"></path><path d="M304.42,78.27h2V93.76h-2Z" style="fill:#fff"></path><path d="M320,91.75l1.18-1.36a6,6,0,0,0,4.27,1.92c2,0,3.24-1,3.24-2.52s-1.12-2.08-2.58-2.72l-2.23-1c-1.44-.62-3.13-1.71-3.13-4S322.82,78,325.63,78a6.35,6.35,0,0,1,4.56,1.92l-1,1.26a5,5,0,0,0-3.52-1.45c-1.73,0-2.89.88-2.89,2.26s1.36,2,2.57,2.57l2.21,1c1.79.77,3.19,1.84,3.19,4.14,0,2.45-2,4.41-5.28,4.41A7.42,7.42,0,0,1,320,91.75Z" style="fill:#fff"></path><path d="M347,79.94h-4.69V78.27h11.34v1.67H349V93.76h-2Z" style="fill:#fff"></path><path d="M366.93,78.27h4.85c3.16,0,5.42,1.13,5.42,4.36s-2.26,4.58-5.42,4.58H368.9v6.55h-2Zm4.57,7.34c2.41,0,3.73-1,3.73-3s-1.32-2.76-3.73-2.76h-2.6v5.74Zm-.11,1.06,1.55-1,4.72,8.11h-2.23Z" style="fill:#fff"></path><path d="M390.86,78.27h2V93.76h-2Z" style="fill:#fff"></path><path d="M406.68,86c0-5,2.94-8,6.87-8a5.76,5.76,0,0,1,4.26,1.91l-1.08,1.28a4.2,4.2,0,0,0-3.14-1.46c-2.93,0-4.88,2.4-4.88,6.26s1.86,6.33,4.8,6.33a4.63,4.63,0,0,0,3.59-1.74l1.08,1.24a6,6,0,0,1-4.75,2.24C409.57,94.05,406.68,91.06,406.68,86Z" style="fill:#fff"></path><path d="M434.36,79.94h-4.69V78.27H441v1.67h-4.69V93.76h-2Z" style="fill:#fff"></path></g><path d="M193.88,28.1,181.52,68.19H171.8l-7.69-19.35-7.54,19.35h-9.73L134.29,28.1h11.86l6.51,23.1,9.55-22.9H166l9.72,22.92,6.37-23.12Z" style="fill:#fff"></path><path d="M196.72,28.1h11.19V68.19H196.72Z" style="fill:#fff"></path><path d="M250.06,28.1V68.19h-9.13L225,46.43V68.19H214.3V28.1H224l15.39,21v-21Z" style="fill:#fff"></path><path d="M293.37,48.11c0,11.7-8.59,20.08-20.69,20.08H256.46V28.1h16.22C284.82,28.1,293.37,36.4,293.37,48.11Zm-11.32,0c0-6-3.95-9.9-9.89-9.9h-4.61V58.07h4.61C278.1,58.07,282.05,54,282.05,48.11Z" style="fill:#fff"></path><path d="M352.41,28.1,340.05,68.19h-9.72l-7.69-19.35-7.55,19.35h-9.72L292.82,28.1h11.86l6.5,23.1,9.55-22.9h3.83l9.72,22.92,6.37-23.12Z" style="fill:#fff"></path><path d="M376.54,61.67H362.33l-2.22,6.52H348.27L364,28.1h10.79L390.9,68.19H378.74Zm-7.13-21.06L365,53h8.82Z" style="fill:#fff"></path><path d="M408.44,55.92h-4V68.19H393.39V28.1h17.38c8.64,0,14.9,5.81,14.9,14.19a12.84,12.84,0,0,1-6.36,11.32l8,14.58H414.94Zm-4-9.3h5c3.09,0,4.87-1.86,4.87-4.37s-1.78-4.34-4.87-4.34h-5Z" style="fill:#fff"></path><path d="M467.65,48.11c0,11.7-8.59,20.08-20.69,20.08H430.73V28.1H447C459.1,28.1,467.65,36.4,467.65,48.11Zm-11.32,0c0-6-4-9.9-9.89-9.9h-4.61V58.07h4.61C452.37,58.07,456.33,54,456.33,48.11Z" style="fill:#fff"></path></svg>