<svg xmlns="http://www.w3.org/2000/svg" viewBox="0 0 468.15 118.51"><g id="a"></g><g id="b"><g id="c"><path d="M58.38,6.05c28.85,0,52.33,23.87,52.33,53.2s-23.47,53.2-52.33,53.2S6.05,88.59,6.05,59.25,29.53,6.05,58.38,6.05m0-6.05C26.14,0,0,26.53,0,59.25s26.14,59.25,58.38,59.25,58.38-26.53,58.38-59.25S90.62,0,58.38,0h0Z" style="fill:#1f80ad;"></path><polygon points="70.51 77.41 74.44 80.02 99.14 22.51 94.77 20.65 70.51 77.41" style="fill:#004681;"></polygon><polygon points="46.48 77.4 42.55 80.02 17.62 21.99 21.99 20.12 46.48 77.4" style="fill:#004681;"></polygon><g><polygon points="78.15 91.05 82.06 93.7 108.21 32.83 103.84 30.96 78.15 91.05" style="fill:#004681;"></polygon><polygon points="39.59 90.72 35.7 93.41 8.56 30.21 12.93 28.34 39.59 90.72" style="fill:#004681;"></polygon></g><polygon points="85.76 104.35 89.68 106.97 114.94 48.16 110.57 46.3 85.76 104.35" style="fill:#004681;"></polygon><polygon points="32.11 104.31 28.21 106.97 1.75 45.37 6.12 43.5 32.11 104.31" style="fill:#004681;"></polygon><polygon points="26.66 107.18 32.57 108.38 57.88 51.59 57.88 51.59 26.66 107.18" style="fill:#004681;"></polygon><polygon points="89.78 107.18 83.86 108.38 58.55 51.59 58.55 51.59 89.78 107.18" style="fill:#004681;"></polygon><path d="M58.38,6.05c28.85,0,52.33,23.87,52.33,53.2s-23.47,53.2-52.33,53.2S6.05,88.59,6.05,59.25,29.53,6.05,58.38,6.05m0-6.05C26.14,0,0,26.53,0,59.25s26.14,59.25,58.38,59.25,58.38-26.53,58.38-59.25S90.62,0,58.38,0h0Z" style="fill:#008cc6;"></path><g><g><path d="M171.42,79.16h-4.69v-1.67h11.34v1.67h-4.69v13.82h-1.97v-13.82Z" style="fill:#004681;"></path><path d="M191.35,77.49h8.93v1.67h-6.96v4.85h5.87v1.67h-5.87v5.63h7.19v1.67h-9.17v-15.49Z" style="fill:#004681;"></path><path d="M213.4,85.25c0-5,2.94-8.04,6.88-8.04,1.88,0,3.35,.92,4.26,1.91l-1.08,1.28c-.81-.87-1.84-1.46-3.15-1.46-2.93,0-4.87,2.4-4.87,6.26s1.86,6.33,4.8,6.33c1.48,0,2.6-.64,3.59-1.74l1.08,1.24c-1.22,1.42-2.74,2.24-4.75,2.24-3.86,0-6.75-2.98-6.75-8.02Z" style="fill:#004681;"></path><path d="M238.28,77.49h1.97v6.49h7.21v-6.49h1.97v15.49h-1.97v-7.28h-7.21v7.28h-1.97v-15.49Z" style="fill:#004681;"></path><path d="M279.4,77.49h3.88c4.76,0,7.32,2.77,7.32,7.69s-2.55,7.8-7.23,7.8h-3.96v-15.49Zm3.73,13.88c3.62,0,5.43-2.27,5.43-6.19s-1.81-6.07-5.43-6.07h-1.76v12.26h1.76Z" style="fill:#004681;"></path><path d="M304.42,77.49h1.97v15.49h-1.97v-15.49Z" style="fill:#004681;"></path><path d="M320.01,90.97l1.18-1.35c1.12,1.16,2.66,1.92,4.27,1.92,2.03,0,3.24-1.01,3.24-2.52,0-1.58-1.12-2.09-2.58-2.73l-2.23-.98c-1.44-.62-3.14-1.71-3.14-3.99s2.06-4.11,4.88-4.11c1.84,0,3.47,.8,4.56,1.92l-1.05,1.27c-.95-.9-2.08-1.45-3.52-1.45-1.74,0-2.89,.88-2.89,2.26,0,1.49,1.35,2.05,2.56,2.56l2.21,.96c1.79,.77,3.19,1.84,3.19,4.14,0,2.45-2.02,4.4-5.28,4.4-2.17,0-4.06-.89-5.42-2.3Z" style="fill:#004681;"></path><path d="M347,79.16h-4.69v-1.67h11.34v1.67h-4.69v13.82h-1.97v-13.82Z" style="fill:#004681;"></path><path d="M366.93,77.49h4.85c3.16,0,5.42,1.13,5.42,4.36s-2.27,4.58-5.42,4.58h-2.88v6.55h-1.97v-15.49Zm4.57,7.34c2.41,0,3.74-.98,3.74-2.98s-1.33-2.76-3.74-2.76h-2.6v5.75h2.6Zm-.11,1.06l1.54-1.02,4.73,8.11h-2.23l-4.04-7.09Z" style="fill:#004681;"></path><path d="M390.86,77.49h1.97v15.49h-1.97v-15.49Z" style="fill:#004681;"></path><path d="M406.68,85.25c0-5,2.94-8.04,6.88-8.04,1.88,0,3.35,.92,4.26,1.91l-1.08,1.28c-.81-.87-1.84-1.46-3.15-1.46-2.93,0-4.87,2.4-4.87,6.26s1.86,6.33,4.8,6.33c1.48,0,2.6-.64,3.59-1.74l1.08,1.24c-1.22,1.42-2.74,2.24-4.75,2.24-3.86,0-6.75-2.98-6.75-8.02Z" style="fill:#004681;"></path><path d="M434.36,79.16h-4.69v-1.67h11.34v1.67h-4.69v13.82h-1.97v-13.82Z" style="fill:#004681;"></path></g><g><path d="M193.88,27.32l-12.36,40.09h-9.72l-7.69-19.35-7.54,19.35h-9.72l-12.55-40.09h11.86l6.5,23.1,9.55-22.91h3.82l9.72,22.92,6.37-23.12h11.76Z" style="fill:#001b4e;"></path><path d="M196.72,27.32h11.19v40.09h-11.19V27.32Z" style="fill:#001b4e;"></path><path d="M250.06,27.32v40.09h-9.13l-15.92-21.75v21.75h-10.7V27.32h9.67l15.39,21.03V27.32h10.7Z" style="fill:#001b4e;"></path><path d="M293.37,47.33c0,11.7-8.59,20.08-20.69,20.08h-16.22V27.32h16.22c12.14,0,20.69,8.3,20.69,20.01Zm-11.32,0c0-5.95-3.96-9.9-9.89-9.9h-4.61v19.86h4.61c5.94,0,9.89-4.05,9.89-9.96Z" style="fill:#001b4e;"></path><path d="M352.41,27.32l-12.36,40.09h-9.72l-7.69-19.35-7.54,19.35h-9.72l-12.55-40.09h11.86l6.5,23.1,9.55-22.91h3.82l9.72,22.92,6.37-23.12h11.76Z" style="fill:#001b4e;"></path><path d="M376.54,60.9h-14.21l-2.22,6.51h-11.83l15.75-40.09h10.79l16.09,40.09h-12.16l-2.21-6.51Zm-7.13-21.06l-4.39,12.42h8.82l-4.43-12.42Z" style="fill:#001b4e;"></path><path d="M408.44,55.14h-4v12.27h-11.04V27.32h17.38c8.64,0,14.91,5.81,14.91,14.19,0,4.92-2.4,8.95-6.36,11.32l7.96,14.58h-12.33l-6.5-12.27Zm-4-9.3h5.04c3.09,0,4.86-1.86,4.86-4.36s-1.78-4.34-4.86-4.34h-5.04v8.7Z" style="fill:#001b4e;"></path><path d="M467.65,47.33c0,11.7-8.59,20.08-20.69,20.08h-16.22V27.32h16.22c12.14,0,20.69,8.3,20.69,20.01Zm-11.32,0c0-5.95-3.96-9.9-9.89-9.9h-4.61v19.86h4.61c5.94,0,9.89-4.05,9.89-9.96Z" style="fill:#001b4e;"></path></g></g></g></g></svg>