<svg xmlns="http://www.w3.org/2000/svg" xmlns:xlink="http://www.w3.org/1999/xlink" viewBox="0 0 573.22 90.17"><defs><style>.cls-1{fill:url(#radial-gradient);}.cls-2{fill:#8fc1cc;}.cls-3{fill:url(#linear-gradient);}.cls-4{fill:url(#linear-gradient-2);}.cls-5{fill:url(#linear-gradient-3);}</style><radialGradient id="radial-gradient" cx="375.66" cy="36" r="140.83" gradientUnits="userSpaceOnUse"><stop offset="0" stop-color="#15d7e2"/><stop offset="1" stop-color="#33bfee"/></radialGradient><linearGradient id="linear-gradient" x1="-99.26" y1="-356.23" x2="-122.15" y2="-398.05" gradientTransform="translate(161.31 893.57) scale(1.13 2.23)" gradientUnits="userSpaceOnUse"><stop offset="0.51" stop-color="#15d7e2"/><stop offset="0.52" stop-color="#33bfee"/></linearGradient><linearGradient id="linear-gradient-2" x1="92.75" y1="87.87" x2="154.61" y2="13.61" gradientTransform="translate(141.58 183.21) rotate(-120)" gradientUnits="userSpaceOnUse"><stop offset="0.48" stop-color="#33bfee"/><stop offset="1" stop-color="#33bfee"/></linearGradient><linearGradient id="linear-gradient-3" x1="56.61" y1="55.09" x2="122.46" y2="55.09" gradientTransform="translate(-7.09 96.49) rotate(-54.8)" gradientUnits="userSpaceOnUse"><stop offset="0" stop-color="#15d7e2"/><stop offset="0.49" stop-color="#15d7e2"/><stop offset="0.98" stop-color="#15d7e2"/></linearGradient></defs><g id="Layer_2" data-name="Layer 2"><g id="Layer_1-2" data-name="Layer 1"><path d="M178.11,10.79h11.52l2.66,35.29L208.2,10.79h9.37l3.52,35.29L236,10.79h12.53L225.77,61.2h-13.1l-3-29.74L196.25,61.2h-13.1Z" transform="translate(0 -6.37)"/><path d="M265.08,10.79,256.23,61.2H244.71l8.85-50.41Z" transform="translate(0 -6.37)"/><path d="M273.72,10.79h8.64l14.48,28.3,5-28.3h11.52L304.47,61.2h-8.64l-14.4-28.3-5.05,28.3H264.86Z" transform="translate(0 -6.37)"/><path d="M362.21,36.72A29.13,29.13,0,0,1,333.27,61.2H313.1L322,10.79h20.16C355.3,10.79,364.73,22.46,362.21,36.72Zm-22-14.84h-8.64l-5,28.23h7.92c8.64,0,15.12-5.83,16.63-14.47S348.1,21.88,340.18,21.88Z" transform="translate(0 -6.37)"/><path d="M366.74,10.79h11.53l2.66,35.29,15.91-35.29h9.36l3.53,35.29,14.91-35.29h12.53L414.41,61.2h-13.1l-3-29.74L384.89,61.2h-13.1Z" transform="translate(0 -6.37)"/><path d="M461.5,53.28H442.78l-4,7.92h-12.6l26-50.41h14.69l8.28,50.41h-12.6Zm-1.3-10.8L457.83,23.4l-9.65,19.08Z" transform="translate(0 -6.37)"/><path d="M511,43.05l7.35,18.15H506.64l-6.55-16.56h-6.27L490.94,61.2H479.42l8.86-50.41h19.44a15.12,15.12,0,0,1,15,18A18.52,18.52,0,0,1,511,43.05ZM505.85,21.6h-7.92l-2.31,13h8.64c3.53,0,6.27-2.81,6.92-6.48S509.74,21.6,505.85,21.6Z" transform="translate(0 -6.37)"/><path d="M572.81,36.72A29.13,29.13,0,0,1,543.86,61.2H523.7l8.86-50.41h20.16C565.9,10.79,575.33,22.46,572.81,36.72Zm-22-14.84h-8.64l-5,28.23h7.92c8.64,0,15.12-5.83,16.63-14.47S558.7,21.88,550.78,21.88Z" transform="translate(0 -6.37)"/><path class="cls-1" d="M178.11,10.79h11.52l2.66,35.29L208.2,10.79h9.37l3.52,35.29L236,10.79h12.53L225.77,61.2h-13.1l-3-29.74L196.25,61.2h-13.1Z" transform="translate(0 -6.37)"/><path class="cls-1" d="M265.08,10.79,256.23,61.2H244.71l8.85-50.41Z" transform="translate(0 -6.37)"/><path class="cls-1" d="M273.72,10.79h8.64l14.48,28.3,5-28.3h11.52L304.47,61.2h-8.64l-14.4-28.3-5.05,28.3H264.86Z" transform="translate(0 -6.37)"/><path class="cls-1" d="M362.21,36.72A29.13,29.13,0,0,1,333.27,61.2H313.1L322,10.79h20.16C355.3,10.79,364.73,22.46,362.21,36.72Zm-22-14.84h-8.64l-5,28.23h7.92c8.64,0,15.12-5.83,16.63-14.47S348.1,21.88,340.18,21.88Z" transform="translate(0 -6.37)"/><path class="cls-1" d="M366.74,10.79h11.53l2.66,35.29,15.91-35.29h9.36l3.53,35.29,14.91-35.29h12.53L414.41,61.2h-13.1l-3-29.74L384.89,61.2h-13.1Z" transform="translate(0 -6.37)"/><path class="cls-1" d="M461.5,53.28H442.78l-4,7.92h-12.6l26-50.41h14.69l8.28,50.41h-12.6Zm-1.3-10.8L457.83,23.4l-9.65,19.08Z" transform="translate(0 -6.37)"/><path class="cls-1" d="M511,43.05l7.35,18.15H506.64l-6.55-16.56h-6.27L490.94,61.2H479.42l8.86-50.41h19.44a15.12,15.12,0,0,1,15,18A18.52,18.52,0,0,1,511,43.05ZM505.85,21.6h-7.92l-2.31,13h8.64c3.53,0,6.27-2.81,6.92-6.48S509.74,21.6,505.85,21.6Z" transform="translate(0 -6.37)"/><path class="cls-1" d="M572.81,36.72A29.13,29.13,0,0,1,543.86,61.2H523.7l8.86-50.41h20.16C565.9,10.79,575.33,22.46,572.81,36.72Zm-22-14.84h-8.64l-5,28.23h7.92c8.64,0,15.12-5.83,16.63-14.47S558.7,21.88,550.78,21.88Z" transform="translate(0 -6.37)"/><path class="cls-2" d="M201.14,79.27h-6V96H189V79.27h-6V73.76h18.22Z" transform="translate(0 -6.37)"/><path class="cls-2" d="M230.25,90.67V96H215.77V73.76H230v5.29h-8.12v3.27h7.3v5h-7.3v3.33Z" transform="translate(0 -6.37)"/><path class="cls-2" d="M256,96.54a11.67,11.67,0,1,1,0-23.34,11,11,0,0,1,11.23,9.48H261a5.25,5.25,0,0,0-5-3.76c-3.14,0-5.45,2.53-5.45,6s2.31,5.92,5.45,5.92a5.11,5.11,0,0,0,5-4.08h6.26A11.09,11.09,0,0,1,256,96.54Z" transform="translate(0 -6.37)"/><path class="cls-2" d="M301.14,73.76V96H295V87.45H288.3V96h-6.18V73.76h6.18v8H295v-8Z" transform="translate(0 -6.37)"/><path class="cls-2" d="M356.57,84.85c0,6.49-4.77,11.13-11.47,11.13h-9V73.76h9C351.82,73.76,356.57,78.36,356.57,84.85Zm-6.28,0a5.18,5.18,0,0,0-5.48-5.48h-2.56v11h2.56A5.21,5.21,0,0,0,350.29,84.85Z" transform="translate(0 -6.37)"/><path class="cls-2" d="M371.65,73.76h6.2V96h-6.2Z" transform="translate(0 -6.37)"/><path class="cls-2" d="M393,88.81h6.32a2.36,2.36,0,0,0,2.62,2.36c1.28,0,2.5-.69,2.5-1.9,0-1.39-1.73-1.8-3.84-2.31-3.21-.8-7.31-1.78-7.31-6.84,0-4.38,3.21-6.88,8.45-6.88s8.38,2.73,8.38,7.25H404a2,2,0,0,0-2.31-2.06c-1.09,0-2.14.47-2.14,1.51,0,1.26,1.67,1.68,3.77,2.2,3.27.85,7.54,1.94,7.54,7,0,4.85-3.73,7.37-8.89,7.37C396.49,96.52,393,93.65,393,88.81Z" transform="translate(0 -6.37)"/><path class="cls-2" d="M442.13,79.27h-6V96H430V79.27h-6V73.76h18.22Z" transform="translate(0 -6.37)"/><path class="cls-2" d="M465.1,89.18h-2.22V96h-6.12V73.76h9.63c4.79,0,8.26,3.22,8.26,7.86a7.11,7.11,0,0,1-3.53,6.28L475.54,96H468.7ZM462.88,84h2.8a2.43,2.43,0,1,0,0-4.83h-2.8Z" transform="translate(0 -6.37)"/><path class="cls-2" d="M490.11,73.76h6.2V96h-6.2Z" transform="translate(0 -6.37)"/><path class="cls-2" d="M523.17,96.54a11.67,11.67,0,1,1,0-23.34,11,11,0,0,1,11.24,9.48h-6.2a5.27,5.27,0,0,0-5-3.76c-3.15,0-5.46,2.53-5.46,6s2.31,5.92,5.46,5.92a5.11,5.11,0,0,0,5-4.08h6.26a11.09,11.09,0,0,1-11.3,9.81Z" transform="translate(0 -6.37)"/><path class="cls-2" d="M565.55,79.27h-6V96h-6.15V79.27h-6V73.76h18.22Z" transform="translate(0 -6.37)"/><rect class="cls-3" x="-14.77" y="35.16" width="101.18" height="31.49" rx="15.74" transform="translate(56.76 -14.08) rotate(54.8)"/><rect class="cls-4" x="74.87" y="34.99" width="97.61" height="31.49" rx="15.74" transform="translate(229.46 -37.38) rotate(120)"/><rect class="cls-5" x="44.35" y="39.35" width="90.37" height="31.49" rx="15.17" transform="translate(82.94 -56.2) rotate(54.8)"/></g></g></svg>