<svg xmlns="http://www.w3.org/2000/svg" viewBox="0 0 1860.2 552.08"><defs><style>.cls-1{fill:#293bfd;}.cls-2{fill:#fff;}.cls-3{fill:#00edff;}</style></defs><g id="Layer_2" data-name="Layer 2"><g id="Layer_1-2" data-name="Layer 1"><path d="M1591.45,12.7v96.19A96.14,96.14,0,0,1,1651.6,87.4c51.72,0,85,37.9,85,96.3V319.39H1659V192.72c0-26-9.13-39.24-29.39-39.24-23.48,0-38.12,16.67-38.12,45.58V319.39"/><path d="M434.17,27.3,344.11,319.39H273.27l-56-141-55,141H91.45L0,27.3H86.41l47.38,168.35L203.37,28.74h27.85l70.83,167L348.48,27.3Z"/><path d="M451,94.06h77.62V319.38H451ZM451.63,0h76.42V65.86H451.63Z"/><path d="M790.18,182v137.4H712.57V192.72c0-26.23-9.85-39.24-29.38-39.24-24.21,0-38.13,16.91-38.13,45.58V319.39H567.45V94.06H621.9l10.66,23.24c16.78-18.7,41.79-29.9,70.93-29.9C755.81,87.4,790.18,124.59,790.18,182Z"/><path d="M976.87,251.41v68h-53.4c-49.83,0-80.11-30.46-80.11-80.53v-85H802.11V135.69l101-107.5H919V94.06h56.61v59.77H921v71.71c0,16.14,9.74,25.87,26.11,25.87Z"/><path d="M1233.18,204.6a142.69,142.69,0,0,1-1.61,20.54H1064.26c5.08,25.85,21.5,39.21,46,39.21,18.13,0,33.28-7.94,40.74-21.13h77.23c-15.85,51.43-61.44,83.56-118,83.56-70.3,0-122.38-51.39-122.38-120.23,0-69.08,51.66-119.87,122.38-119.87,72.63,0,122.92,51.82,122.92,117.91Zm-167.55-22.44h91.09c-6.81-22.51-23-34.66-46.46-34.66C1087.64,147.5,1071.91,159.78,1065.63,182.16Z"/><path d="M1369.94,326.76c-72.26,0-124.42-50.62-124.42-120.34S1297.44,87,1370.18,87c63.33,0,110.82,39.92,119.3,99.85h-75.6c-6.52-18.38-23.71-30.31-43.94-30.31-27.27,0-46.68,20.73-46.68,50.09s19.65,50.56,46.68,50.56c20.83,0,37.7-12.75,44.11-32.87h76.26c-8.77,61.19-56.92,102.42-120.37,102.42Z"/><path class="cls-1" d="M246,539.56a30.73,30.73,0,0,1-1.78-61.4c167.31-9.94,297.09-50.07,376.51-82,74.58-30,120-58.45,132.14-66.46a11.5,11.5,0,0,0,1.72-1.39C808.63,276.1,864,249.62,919.13,249.62A177.93,177.93,0,0,1,947.72,252c48.58,8,96.06,37.33,137.33,84.92a381.51,381.51,0,0,1,46.79,67.49l.23.41c14.32,24.86,37.75,55.31,68.09,59.18a56.06,56.06,0,0,0,7,.44c27.49,0,52.83-19.88,59.94-26a11.88,11.88,0,0,0,3.19-4.33c47.24-109,109.21-176.13,184.19-199.63a185.62,185.62,0,0,1,55.55-8.64c31.23,0,52.1,8.25,54.38,9.19l5.32,2.21,4.16,4c69.22,66.18,111.32,80.07,134.44,80.07a44.44,44.44,0,0,0,11.94-1.49c15.85-4.46,25.32-18.7,30.27-29l60.66,14.5c-9.31,25.57-32,61.22-73.1,73.35A108.58,108.58,0,0,1,1707.4,383c-23.47,0-49.26-7.36-76.68-21.89-28.21-14.95-59.13-38-91.9-68.51a11.94,11.94,0,0,0-5.54-2.92,103.81,103.81,0,0,0-22.53-2.38c-42,0-122.15,23.24-187.3,178.88l-2.17,5.18-3.87,4.09c-4.89,5.16-49.5,50.44-109.89,50.45a120,120,0,0,1-14.3-.86c-45-5.41-83.65-35.81-114.85-90.35l-.92-1.71a325.73,325.73,0,0,0-37.91-54.87c-32.31-37.77-66.65-59.82-102.06-65.53a110.58,110.58,0,0,0-17.55-1.4c-40,0-82.07,21.43-125.06,63.71l-1.77,1.74-2,1.44c-2.09,1.47-51.92,36.42-144.24,73.86C562.62,486.06,425,529,247.85,539.5c-.63,0-1.26.06-1.87.06Z"/><path class="cls-2" d="M1510.05,237.8c28.92,0,47.75,7.44,49.8,8.29l3.25,1.34,2.54,2.43c32.21,30.8,61.8,53.4,87.95,67.18,20.43,10.76,38.86,16.22,54.76,16.22a56.07,56.07,0,0,0,15.17-1.95c15.86-4.45,26.43-16,33.14-26.79l37.91,9.06a122.57,122.57,0,0,1-12.22,19.61c-13,17-29,28.45-47.61,33.92a96.58,96.58,0,0,1-27.34,3.9c-21.49,0-45.4-6.9-71.08-20.5C1609,336.05,1579,313.61,1547,283.82A23.89,23.89,0,0,0,1535.9,278a115.3,115.3,0,0,0-25.15-2.67c-22.29,0-56.67,6-93.89,34.73-40.22,31-75.36,82-104.45,151.49l-1.33,3.17-2.36,2.5a167,167,0,0,1-32.1,25.38c-23,14.15-46.21,21.32-69.1,21.32a108.43,108.43,0,0,1-12.87-.77c-20-2.4-38.86-10.4-56-23.76-18.11-14.1-34.86-34.46-49.78-60.52l-.79-1.45c-3.61-6.94-59.82-112.33-148.68-126.67a123.62,123.62,0,0,0-19.44-1.55c-43.24,0-88.14,22.6-133.46,67.16l-1.08,1.06-1.25.88c-2,1.44-50.77,35.61-141.81,72.53-83.38,33.82-219.62,76.31-395.2,86.74-.38,0-.77,0-1.15,0a18.76,18.76,0,0,1-1.07-37.48c168.92-10,300-50.57,380.26-82.82,75.62-30.38,121.9-59.41,134.28-67.58a23.44,23.44,0,0,0,3.44-2.77c51.75-50,104.32-75.35,156.24-75.35a164.25,164.25,0,0,1,26.65,2.19c45.78,7.51,90.81,35.5,130.22,81a368,368,0,0,1,45.24,65.21c.15.27.3.55.45.81,9,15.63,18.67,28.7,28.74,38.85,15.14,15.26,31.37,24.09,48.21,26.23a66.94,66.94,0,0,0,8.54.54c30.74,0,57.6-20.17,67.73-28.85a23.91,23.91,0,0,0,6.39-8.66c45.79-105.62,105.27-170.55,176.78-193a173.84,173.84,0,0,1,52-8.09m0-23.94a197.49,197.49,0,0,0-59.13,9.18c-78.47,24.6-142.9,94-191.59,206.3-10.79,9.24-31.56,23.08-52.15,23.08a44,44,0,0,1-5.5-.34c-25.41-3.24-46.17-30.59-59.24-53.28A392.61,392.61,0,0,0,1094.09,329C1051,279.31,1001,248.57,949.66,240.15a188.43,188.43,0,0,0-30.53-2.51c-58.39,0-116.4,27.52-172.87,82.08-10.75,7.09-55.75,35.51-130,65.35-78.59,31.58-207,71.29-372.75,81.14A42.7,42.7,0,0,0,246,551.53c.86,0,1.72,0,2.58-.08,178.82-10.62,317.73-54,402.77-88.45,93.46-37.9,144.52-73.67,146.65-75.17l2.82-2,2.47-2.43c40.75-40.07,79.92-60.27,116.66-60.27a98.3,98.3,0,0,1,15.64,1.25C1014,337,1066.4,437.66,1066.88,438.58l1,1.89c33.2,58.1,74.88,90.54,123.89,96.44a132.25,132.25,0,0,0,15.73.94c65.25,0,113-48.28,118.58-54.19l5.38-5.67,3-7.21c62.52-149.37,137.35-171.53,176.25-171.53a91.84,91.84,0,0,1,19.91,2.09C1598,364.05,1656.25,395,1707.4,395a119.78,119.78,0,0,0,34.1-4.87c53.07-15.63,78.31-66.14,84.86-93.52L1743.3,276.7l.12-.49c-.07.27-7.61,26.78-26.38,32.05a31.94,31.94,0,0,1-8.69,1.05c-17.54,0-56.67-10.31-126.16-76.75L1576.4,227,1569,224c-3.52-1.45-25.82-10.1-59-10.1Z"/><circle class="cls-3" cx="246.58" cy="511.52" r="29.18"/><path class="cls-2" d="M246.58,552.08a40.57,40.57,0,1,1,40.56-40.56A40.61,40.61,0,0,1,246.58,552.08Zm0-70.32a29.76,29.76,0,1,0,29.75,29.76A29.78,29.78,0,0,0,246.58,481.76Z"/><circle class="cls-3" cx="1800.41" cy="283.09" r="51.83"/><path class="cls-2" d="M1800.4,342.89a59.8,59.8,0,1,1,59.8-59.8A59.86,59.86,0,0,1,1800.4,342.89Zm0-103.66a43.86,43.86,0,1,0,43.87,43.86A43.92,43.92,0,0,0,1800.4,239.23Z"/><circle class="cls-2" cx="1518.15" cy="338.76" r="48.14"/><ellipse class="cls-2" cx="1417.71" cy="226.18" rx="39.43" ry="26.34"/><path d="M1591.45,199.06V319.39h-77.62V12.7h77.62v96.19"/></g></g></svg>