<?xml version="1.0" encoding="UTF-8"?>
<svg xmlns="http://www.w3.org/2000/svg" xmlns:xlink="http://www.w3.org/1999/xlink" id="b" viewBox="0 0 845.52 239.28">
  <defs>
    <linearGradient id="d" x1="461.76" y1="666.49" x2="-110.24" y2="-307.51" gradientUnits="userSpaceOnUse">
      <stop offset="0" stop-color="#e6d6aa"></stop>
      <stop offset="1" stop-color="#9b7f55"></stop>
    </linearGradient>
    <linearGradient id="e" x1="653.55" y1="553.86" x2="81.55" y2="-420.14" xlink:href="#d"></linearGradient>
    <linearGradient id="f" x1="809.65" y1="462.19" x2="237.65" y2="-511.81" xlink:href="#d"></linearGradient>
    <linearGradient id="g" x1="981.23" y1="361.43" x2="409.23" y2="-612.57" xlink:href="#d"></linearGradient>
    <linearGradient id="h" x1="299.66" y1="622.68" x2="68.8" y2="-42.51" xlink:href="#d"></linearGradient>
    <linearGradient id="i" x1="325.16" y1="613.83" x2="94.3" y2="-51.36" xlink:href="#d"></linearGradient>
    <linearGradient id="j" x1="355.6" y1="603.26" x2="124.74" y2="-61.92" xlink:href="#d"></linearGradient>
    <linearGradient id="k" x1="387.32" y1="592.25" x2="156.46" y2="-72.93" xlink:href="#d"></linearGradient>
    <linearGradient id="l" x1="421.76" y1="580.3" x2="190.9" y2="-84.89" xlink:href="#d"></linearGradient>
    <linearGradient id="m" x1="466.62" y1="564.73" x2="235.76" y2="-100.46" xlink:href="#d"></linearGradient>
    <linearGradient id="n" x1="507.55" y1="550.53" x2="276.69" y2="-114.66" xlink:href="#d"></linearGradient>
    <linearGradient id="o" x1="543.02" y1="538.21" x2="312.16" y2="-126.97" xlink:href="#d"></linearGradient>
    <linearGradient id="p" x1="571.48" y1="528.34" x2="340.62" y2="-136.85" xlink:href="#d"></linearGradient>
    <linearGradient id="q" x1="604.88" y1="516.75" x2="374.02" y2="-148.44" xlink:href="#d"></linearGradient>
    <linearGradient id="r" x1="631.85" y1="507.39" x2="400.99" y2="-157.8" xlink:href="#d"></linearGradient>
    <linearGradient id="s" x1="663.77" y1="496.31" x2="432.91" y2="-168.88" xlink:href="#d"></linearGradient>
    <linearGradient id="t" x1="696.42" y1="484.98" x2="465.56" y2="-180.21" xlink:href="#d"></linearGradient>
    <linearGradient id="u" x1="713.82" y1="478.94" x2="482.96" y2="-186.25" xlink:href="#d"></linearGradient>
    <linearGradient id="v" x1="738.23" y1="470.47" x2="507.37" y2="-194.72" xlink:href="#d"></linearGradient>
    <linearGradient id="w" x1="767.81" y1="460.2" x2="536.95" y2="-204.99" xlink:href="#d"></linearGradient>
  </defs>
  <g id="c">
    <path d="M94.97,72.35l30.73-45.96c2.21-3.36,4.07-6.24,5.58-8.62,1.51-2.38,2.26-4.35,2.26-5.89,0-2.17-1.95-3.68-5.85-4.52l-11.96-2.52-.26-4.84c9.57.28,19.35.42,29.37.42s19.05-.14,28.17-.42l.53,4.52-13.42,3.37c-3.19.77-5.65,2-7.37,3.68-1.73,1.68-3.48,3.75-5.25,6.2l-45.97,64.89v31.97c0,4.21.02,8.03.07,11.46.04,3.44.11,6.56.2,9.36.09,1.75,1.64,2.95,4.65,3.58l16.48,4,.26,4.52c-12.4-.21-23.85-.32-34.35-.32s-22.26.11-34.48.32l-.53-4.52,17.81-4.21c2.21-.49,3.41-1.58,3.59-3.26.09-2.8.15-5.94.2-9.41.04-3.47.07-7.31.07-11.52v-29.76L28.7,20.72c-3.28-4.27-5.96-7.36-8.04-9.26-2.08-1.89-4.85-3.22-8.3-4L.26,4.52,0,0c8.06.28,18.95.42,32.69.42,11.96,0,24.31-.14,37.07-.42l.53,4.52-12.49,2.73c-1.86.35-3.19.86-3.99,1.53s-1.2,1.49-1.2,2.47c0,1.47.69,3.28,2.06,5.41,1.37,2.14,3.08,4.61,5.11,7.41l35.18,48.27Z" fill="url(#d)"></path>
    <path d="M257.57,0c11.43.28,22.41.42,32.95.42s21.61-.14,32.95-.42l.53,4.52-16.48,3.89c-2.12.42-3.28,1.51-3.45,3.26-.09,2.46-.15,5.14-.2,8.05-.05,2.91-.07,6.08-.07,9.52v57.52c0,20.05,4.03,33.95,12.09,41.7,8.06,7.75,21.04,11.62,38.93,11.62s31.31-4,39.46-11.99c8.15-7.99,12.23-21.35,12.23-40.07V29.24c0-3.44-.02-6.61-.07-9.52-.04-2.91-.15-5.59-.33-8.05-.09-1.61-1.24-2.7-3.46-3.26l-15.55-3.58-.26-4.84c11.25.28,20.9.42,28.97.42s17.1-.14,28.17-.42l.53,4.52-16.74,4.1c-2.04.56-3.1,1.75-3.19,3.58-.09,2.31-.15,4.91-.2,7.78-.04,2.87-.07,6.1-.07,9.68v53.95c0,23-5.91,40-17.74,51-11.83,11.01-30.45,16.51-55.87,16.51s-43.28-4.96-55.14-14.88c-11.87-9.92-17.8-25.33-17.8-46.22V29.66c0-3.58-.02-6.8-.07-9.68-.05-2.87-.11-5.47-.2-7.78-.09-1.82-1.15-3.01-3.19-3.58l-16.48-4.1-.26-4.52Z" fill="url(#e)"></path>
    <path d="M592.47,29.24v85.5c0,7.78.09,15.46.27,23.03h64.71l17.01-27.87,5.98-.74-2.92,37.65-.8.74c-22.94-.21-44.16-.32-63.65-.32h-33.35c-10.72,0-21.7.11-32.95.32l-.53-4.52,16.34-3.89c2.21-.49,3.41-1.58,3.59-3.26.09-2.8.15-5.94.2-9.41.04-3.47.07-7.31.07-11.52V29.66c0-3.58-.02-6.8-.07-9.68-.04-2.87-.11-5.47-.2-7.78-.09-1.82-1.15-3.01-3.19-3.58l-16.48-4.1-.26-4.52c11.43.28,22.41.42,32.95.42s21.61-.14,32.95-.42l.53,4.52-16.48,3.89c-2.13.42-3.28,1.51-3.45,3.26-.09,2.46-.16,6.03-.2,10.73-.05,4.7-.07,6.98-.07,6.84Z" fill="url(#f)"></path>
    <path d="M825.32,114.94c0,4.21.02,8.03.07,11.46.04,3.44.11,6.56.2,9.36.09,1.75,1.64,2.95,4.65,3.58l15.01,3.68.27,4.52c-11.43-.21-22.41-.32-32.96-.32s-21.7.11-32.95.32l-.53-4.52,16.34-3.89c2.21-.49,3.41-1.58,3.59-3.26.09-2.8.15-5.94.2-9.41s.07-7.31.07-11.52V29.66c0-3.58-.02-6.8-.07-9.68s-.11-5.47-.2-7.78c-.09-1.82-1.15-3.01-3.19-3.58l-16.48-4.1-.26-4.52c11.43.28,22.41.42,32.95.42s21.61-.14,32.95-.42l.53,4.52-16.48,3.89c-2.13.42-3.28,1.51-3.45,3.26-.09,2.46-.16,5.14-.2,8.05-.05,2.91-.07,6.08-.07,9.52v85.71Z" fill="url(#g)"></path>
    <path d="M149.24,234.21l2.07-2.51c2.26,2.78,6.27,4.5,10.27,4.5,4.92,0,8.34-2.11,8.34-5.42,0-8.29-19.77-3.88-19.77-15.16,0-5.07,4.63-8.24,11.52-8.24,4.43,0,8.73,1.63,10.85,4.06l-2.07,2.51c-1.69-2.12-5.16-3.48-8.77-3.48-4.77,0-7.91,1.98-7.91,5.03,0,8.15,19.77,3.7,19.77,15.12,0,5.29-4.82,8.68-11.96,8.68-5.01,0-9.88-2.03-12.34-5.07Z" fill="url(#h)"></path>
    <path d="M202.17,230.07h-14.41l-3.33,8.68h-3.81l12.29-30.86h4.2l12.1,30.42-3.62.62-3.42-8.86ZM201.01,226.98l-6.03-15.69-6.03,15.69h12.05Z" fill="url(#i)"></path>
    <path d="M238.17,235.67v3.09h-19.23v-30.86h3.56v27.77h15.67Z" fill="url(#j)"></path>
    <path d="M244.77,223.32c0-9.61,5.73-15.96,14.51-15.96s14.51,6.35,14.51,15.96-5.78,15.96-14.51,15.96-14.51-6.35-14.51-15.96ZM270.18,223.32c0-7.71-4.29-12.83-10.89-12.83s-10.9,5.11-10.9,12.83,4.29,12.83,10.9,12.83,10.89-5.11,10.89-12.83Z" fill="url(#k)"></path>
    <path d="M310.61,207.89v30.86h-3.66l-18.27-25.04v25.04h-3.56v-30.86h3.66l18.27,25.04v-25.04h3.56Z" fill="url(#l)"></path>
    <path d="M359.82,238.93l-3.62-3.92c-2.22,2.42-5.3,4.28-9.26,4.28-6.07,0-10.56-3.88-10.56-9.39,0-4.72,3.23-7.23,6.8-9.12-2.22-2.6-3.57-4.89-3.57-7.14,0-3.44,3.23-6.26,7.62-6.26s7.62,2.78,7.62,6.44-3.13,5.69-6.89,7.58l8.05,8.77,4.19-7.36,2.75,1.28-4.05,7.23c-.24.4-.48.79-.72,1.23l5.3,5.78-3.66.62ZM354.23,232.85l-9.16-9.92c-2.89,1.63-5.21,3.57-5.21,6.88,0,3.75,3.04,6.52,7.18,6.52,2.89,0,5.35-1.37,7.18-3.48ZM342.9,213.62c0,1.76,1.35,3.57,3.23,5.69,3.04-1.5,5.45-3.04,5.45-5.47,0-2.25-1.83-3.92-4.34-3.92s-4.34,1.67-4.34,3.7Z" fill="url(#m)"></path>
    <path d="M406.53,230.07h-14.41l-3.33,8.68h-3.81l12.29-30.86h4.2l12.1,30.42-3.62.62-3.42-8.86ZM405.37,226.98l-6.03-15.69-6.03,15.69h12.05Z" fill="url(#n)"></path>
    <path d="M444.37,235.67v3.09h-21.07v-30.86h20.87v3.09h-17.31v10.71h16.1v3h-16.1v10.98h17.5Z" fill="url(#o)"></path>
    <path d="M453.81,234.21l2.07-2.51c2.27,2.78,6.27,4.5,10.27,4.5,4.92,0,8.34-2.11,8.34-5.42,0-8.29-19.76-3.88-19.76-15.16,0-5.07,4.63-8.24,11.52-8.24,4.44,0,8.73,1.63,10.85,4.06l-2.07,2.51c-1.69-2.12-5.16-3.48-8.77-3.48-4.77,0-7.9,1.98-7.9,5.03,0,8.15,19.76,3.7,19.76,15.12,0,5.29-4.82,8.68-11.96,8.68-5.01,0-9.88-2.03-12.34-5.07Z" fill="url(#p)"></path>
    <path d="M510.64,210.98h-10.61v27.77h-3.57v-27.77h-10.65v-3.09h24.83v3.09Z" fill="url(#q)"></path>
    <path d="M545.77,207.89v30.86h-3.57v-14.02h-17.88v14.02h-3.57v-30.86h3.57v13.75h17.88v-13.75h3.57Z" fill="url(#r)"></path>
    <path d="M579.66,235.67v3.09h-21.06v-30.86h20.87v3.09h-17.31v10.71h16.1v3h-16.1v10.98h17.5Z" fill="url(#s)"></path>
    <path d="M613.2,210.98h-10.61v27.77h-3.56v-27.77h-10.65v-3.09h24.83v3.09Z" fill="url(#t)"></path>
    <path d="M623.32,207.89h3.56v30.86h-3.56v-30.86Z" fill="url(#u)"></path>
    <path d="M638.22,223.32c0-9.61,5.73-15.96,14.51-15.96,5.69,0,10.12,2.86,12.34,7.72l-3.38,1.14c-1.73-3.62-4.87-5.73-8.96-5.73-6.61,0-10.9,5.11-10.9,12.83s4.29,12.83,10.9,12.83c4.14,0,7.33-2.11,9.06-5.73l3.38,1.14c-2.22,4.85-6.7,7.72-12.44,7.72-8.78,0-14.51-6.35-14.51-15.96Z" fill="url(#v)"></path>
    <path d="M673.78,234.21l2.07-2.51c2.27,2.78,6.27,4.5,10.27,4.5,4.92,0,8.34-2.11,8.34-5.42,0-8.29-19.76-3.88-19.76-15.16,0-5.07,4.63-8.24,11.52-8.24,4.44,0,8.73,1.63,10.85,4.06l-2.07,2.51c-1.69-2.12-5.16-3.48-8.78-3.48-4.77,0-7.9,1.98-7.9,5.03,0,8.15,19.76,3.7,19.76,15.12,0,5.29-4.82,8.68-11.96,8.68-5.01,0-9.88-2.03-12.34-5.07Z" fill="url(#w)"></path>
  </g>
</svg>
