<?xml version="1.0" encoding="UTF-8"?><svg id="b" xmlns="http://www.w3.org/2000/svg" xmlns:xlink="http://www.w3.org/1999/xlink" viewBox="0 0 325 325"><defs><linearGradient id="d" x1="75" y1="162.5" x2="250" y2="162.5" gradientUnits="userSpaceOnUse"><stop offset="0" stop-color="#434f60"/><stop offset="1" stop-color="#000"/></linearGradient></defs><g id="c"><path d="M241.53,288.67H84.14c-26.08,0-47.22-21.14-47.22-47.22V84.07c0-26.08,21.14-47.22,47.22-47.22h157.39c26.08,0,47.22,21.14,47.22,47.22v157.39c0,26.07-21.15,47.22-47.22,47.22z" fill="#fff"/><path d="M162.5,75C114.2,75,75,110.1,75,153.4c0,24.6,12.7,46.6,32.6,60.8l-1.3,27.1c-0.2,4.3,4.4,7.2,8.2,5.2l31.1-16.1 c5.4,1.7,11.1,2.6,16.9,2.6c48.3,0,87.5-35.1,87.5-78.4S210.8,75,162.5,75z" fill="url(#d)"/></g></svg>
