<?xml version="1.0" encoding="UTF-8"?><svg id="b" xmlns="http://www.w3.org/2000/svg" xmlns:xlink="http://www.w3.org/1999/xlink" viewBox="0 0 880.42 164.42"><defs><linearGradient id="d" x1="89.61" y1="81.93" x2="131.53" y2="81.93" gradientUnits="userSpaceOnUse"><stop offset="0" stop-color="#f2f2f2"/><stop offset="1" stop-color="#dffaff"/></linearGradient><linearGradient id="f" x1="85.85" y1="39.93" x2="220.02" y2="39.93" xlink:href="#d"/><linearGradient id="g" x1="113.78" y1="123.94" x2="220.02" y2="123.94" xlink:href="#d"/><linearGradient id="h" x1=".14" y1="124.51" x2="134.34" y2="124.51" xlink:href="#d"/><linearGradient id="i" x1="0" y1="40.46" x2="106.48" y2="40.46" xlink:href="#d"/><linearGradient id="j" x1="262.75" y1="16.49" x2="351.18" y2="104.93" xlink:href="#d"/><linearGradient id="k" x1="351.85" y1="49.72" x2="418.15" y2="116.02" xlink:href="#d"/><linearGradient id="l" x1="408.5" y1="34.24" x2="507.42" y2="133.16" xlink:href="#d"/><linearGradient id="m" x1="524.42" y1="41.35" x2="607.38" y2="124.31" xlink:href="#d"/><linearGradient id="n" x1="631.27" y1="35.4" x2="735.37" y2="139.5" xlink:href="#d"/><linearGradient id="o" x1="757.06" y1="45.54" x2="824.3" y2="45.54" gradientUnits="userSpaceOnUse"><stop offset="0" stop-color="#00f5c9"/><stop offset=".05" stop-color="#0ad9cb"/><stop offset=".16" stop-color="#1cabce"/><stop offset=".25" stop-color="#2989d0"/><stop offset=".32" stop-color="#3274d2"/><stop offset=".37" stop-color="#356dd3"/><stop offset=".79" stop-color="#00b6e7"/><stop offset=".81" stop-color="#1dbbe5"/><stop offset=".88" stop-color="#6fcbe2"/><stop offset=".94" stop-color="#acd7df"/><stop offset=".98" stop-color="#d1dedd"/><stop offset="1" stop-color="#e0e1dd"/></linearGradient><linearGradient id="p" x1="827.69" x2="880.42" xlink:href="#o"/></defs><g id="c"><circle cx="110.57" cy="81.93" r="20.96" fill="url(#d)"/><g id="e"><path d="M220.02,79.76c-16.58,0-33.17-.1-49.75.09-4.61.05-8.59-2.17-12.65-4.18-14.83-7.32-27.99-18.09-40.05-31.03-11.5-12.34-21.65-26.24-30.37-41.77-.4-.71-.77-1.44-1.15-2.16-.07-.14-.1-.3-.21-.62.5-.03.93-.09,1.36-.08,15.71.33,31.41.67,47.12,1.01,4.38.09,8.75.19,13.12.32,12.45.35,24.15,4.35,34.93,12.11,19.59,14.11,31.89,35.11,37.01,62.71.18.98.42,1.95.63,2.92v.69Z" fill="url(#f)"/><path d="M220.02,84.9c-.81,3.94-1.42,7.98-2.47,11.82-9.66,35.31-29.15,56.84-58.16,64.86-6.24,1.72-12.61,1.79-18.96,1.74-.38,0-.92-.32-1.11-.71-7.18-13.96-15.81-26.41-25.23-38.04-.09-.11-.14-.28-.31-.63,2.96-3.1,5.87-6.28,8.89-9.28,12.79-12.7,26.72-22.83,42.32-29.12,1.37-.55,2.87-.87,4.3-.87,16.45-.07,32.9-.06,49.35-.07.46,0,.92-.03,1.38-.05v.35Z" fill="url(#g)"/><path d="M.14,84.6c.78,0,1.33,0,1.88,0,16.67,0,33.35-.01,50.02.04,1.02,0,2.08.41,3.07.81,15.62,6.34,29.6,16.46,42.41,29.21,13.54,13.48,25.32,29.08,35.32,46.79.5.88.94,1.8,1.51,2.88-.5.04-.8.1-1.1.09-20.45-.38-40.91-.45-61.35-1.24-17.43-.67-32.91-8.42-46.21-22.63C12.93,126.91,4.69,109.76.94,89.24c-.26-1.45-.5-2.9-.8-4.64Z" fill="url(#h)"/><path d="M0,79.86c.71-3.62,1.2-7.02,2.04-10.29C11.62,32.62,31.67,10.23,61.97,2.62c5.72-1.44,11.73-1.13,17.6-1.56.4-.03,1,.37,1.22.8,7.17,13.97,15.8,26.41,25.22,38.03.12.15.22.34.47.74-3.29,3.41-6.48,6.89-9.81,10.16-12.34,12.12-25.76,21.83-40.71,27.99-1.54.64-3.23,1-4.85,1.01-16.35.08-32.71.06-49.06.06-.59,0-1.18,0-2.05,0Z" fill="url(#i)"/></g><path d="M295.12,137.57l-44.06-109.4h24.49l28.77,76.35,2.57,7.49h.75l2.78-7.59,28.87-76.25h23.85l-44.59,109.4h-23.42Z" fill="url(#j)"/><path d="M373.4,137.57V28.17h23.21v109.4h-23.21Z" fill="url(#k)"/><path d="M412.86,137.57v-18.71l61.6-71.33h-59.88v-19.36h86.83v18.93l-61.38,71.11h62.99v19.36h-90.15Z" fill="url(#l)"/><path d="M565.89,141.1c-16.61,0-30.34-5.52-41.17-16.58-10.84-11.05-16.25-24.95-16.25-41.71s5.44-30.91,16.31-41.81c10.87-10.91,24.58-16.36,41.12-16.36s30.26,5.49,41.17,16.47c10.91,10.98,16.36,24.88,16.36,41.71s-5.42,30.66-16.25,41.71c-10.84,11.05-24.6,16.58-41.28,16.58ZM565.89,120.78c9.77,0,17.97-3.55,24.6-10.64,6.63-7.09,9.95-16.2,9.95-27.32s-3.33-20.39-10-27.38c-6.67-6.99-14.85-10.48-24.54-10.48s-17.97,3.49-24.6,10.48c-6.63,6.99-9.95,16.11-9.95,27.38s3.3,20.23,9.89,27.32c6.59,7.09,14.81,10.64,24.65,10.64Z" fill="url(#m)"/><path d="M638.49,28.17h22.24v19.68l-2.99-3.64h3.64c3.28-5.77,8.25-10.48,14.92-14.12,6.67-3.64,13.6-5.45,20.8-5.45,12.62,0,22.47,3.74,29.57,11.23,7.09,7.49,10.64,17.75,10.64,30.8v70.9h-23.31v-66.41c0-8.7-2.09-15.27-6.26-19.73-4.17-4.45-10.32-6.68-18.45-6.68s-14.3,3.07-19.57,9.2c-5.28,6.13-7.91,13.51-7.91,22.14v61.49h-23.31V28.17Z" fill="url(#n)"/><path d="M790.68,81.12c-9.94,0-18.03-3.32-24.27-9.95-6.24-6.63-9.35-15.19-9.35-25.66s3.18-19.08,9.55-25.67c6.37-6.59,14.39-9.89,24.07-9.89s17.7,3.35,24.07,10.05c6.37,6.7,9.55,15.2,9.55,25.5s-3.12,18.86-9.35,25.56c-6.24,6.7-14.32,10.05-24.27,10.05ZM790.68,75.13c7.77,0,14.19-2.73,19.27-8.19,5.08-5.46,7.62-12.6,7.62-21.44s-2.56-15.91-7.69-21.37c-5.13-5.46-11.53-8.19-19.21-8.19s-14.09,2.7-19.24,8.09c-5.15,5.39-7.72,12.55-7.72,21.47s2.53,16.03,7.59,21.47c5.06,5.44,11.52,8.15,19.37,8.15Z" fill="url(#o)"/><path d="M855.12,81.12c-4.48,0-8.36-.59-11.62-1.77-3.26-1.17-6.1-2.9-8.52-5.19-2.42-2.29-4.85-5.96-7.29-11.02l5.99-2.73c2.17,4.26,4.19,7.31,6.06,9.15,1.86,1.84,4.06,3.25,6.59,4.23,2.53.98,5.61,1.46,9.25,1.46,5.68,0,10.12-1.25,13.31-3.76,3.2-2.51,4.79-5.8,4.79-9.89,0-3.68-1.38-6.56-4.13-8.62-2.75-2.06-7.97-4.03-15.65-5.89-7.63-1.86-13.43-4.28-17.38-7.26-3.95-2.97-5.93-7.06-5.93-12.25s2.19-9.26,6.56-12.62c4.37-3.35,10-5.03,16.88-5.03,3.82,0,7.19.47,10.12,1.4,2.93.93,5.52,2.32,7.76,4.16,2.24,1.84,4.45,4.72,6.62,8.62l-5.66,2.66c-1.95-3.2-3.75-5.47-5.39-6.82-1.65-1.35-3.59-2.38-5.83-3.06-2.24-.69-4.83-1.03-7.76-1.03-5.1,0-9.14,1.12-12.12,3.36-2.97,2.24-4.46,4.98-4.46,8.22s1.32,5.98,3.96,7.96c2.64,1.97,7.47,3.83,14.48,5.56,9.14,2.26,15.53,4.97,19.17,8.12,3.64,3.15,5.46,7.17,5.46,12.05,0,5.9-2.29,10.71-6.86,14.41-4.57,3.71-10.72,5.56-18.44,5.56Z" fill="url(#p)"/></g></svg>